<?xml version="1.0" encoding="UTF-8"?>
<!DOCTYPE svg PUBLIC "-//W3C//DTD SVG 1.1//EN" "http://www.w3.org/Graphics/SVG/1.1/DTD/svg11.dtd">
<svg xmlns="http://www.w3.org/2000/svg" version="1.1" width="24px" height="24px" style="shape-rendering:geometricPrecision; text-rendering:geometricPrecision; image-rendering:optimizeQuality; fill-rule:evenodd; clip-rule:evenodd" xmlns:xlink="http://www.w3.org/1999/xlink">
<g><path style="opacity:0.714" fill="#888988" d="M 5.5,1.5 C 7.67702,1.58613 9.67702,2.25279 11.5,3.5C 15.119,0.648472 18.2857,0.981805 21,4.5C 21.755,7.30326 21.4217,9.96993 20,12.5C 17.3176,15.3497 14.4843,18.0164 11.5,20.5C 7.47567,17.9758 4.30901,14.6425 2,10.5C 0.664944,6.3919 1.83161,3.3919 5.5,1.5 Z M 5.5,4.5 C 7.67458,4.68221 9.67458,5.34888 11.5,6.5C 16.7818,2.97542 18.9485,4.30875 18,10.5C 15.9835,12.684 13.8169,14.684 11.5,16.5C 7.89584,14.0675 5.22917,10.9008 3.5,7C 4.38053,6.2917 5.0472,5.45837 5.5,4.5 Z"/></g>
</svg>
