<?xml version="1.0" standalone="no"?>
<!DOCTYPE svg PUBLIC "-//W3C//DTD SVG 20010904//EN"
 "http://www.w3.org/TR/2001/REC-SVG-20010904/DTD/svg10.dtd">
<svg version="1.0" xmlns="http://www.w3.org/2000/svg"
 width="433.000000pt" height="129.000000pt" viewBox="0 0 433.000000 129.000000"
 preserveAspectRatio="xMidYMid meet">

<g transform="translate(0.000000,129.000000) scale(0.100000,-0.100000)"
fill="#000000" stroke="none">
<path d="M1585 929 c-231 -74 -319 -349 -175 -547 38 -53 109 -101 182 -124
231 -71 468 99 468 337 0 157 -112 300 -266 340 -76 20 -136 18 -209 -6z m194
-95 c109 -32 191 -154 178 -265 -11 -88 -79 -180 -159 -214 -52 -21 -153 -19
-205 4 -206 94 -198 389 13 471 60 24 105 25 173 4z"/>
<path d="M2230 595 l0 -355 50 0 50 0 2 239 3 240 136 -127 c75 -70 191 -178
258 -241 l121 -113 0 356 0 356 -50 0 -50 0 0 -230 c0 -126 -4 -230 -8 -230
-4 0 -121 104 -260 230 l-252 230 0 -355z"/>
<path d="M3060 595 l0 -355 50 0 49 0 3 150 3 151 135 -151 135 -150 69 0 c82
0 95 -24 -111 202 -84 91 -153 170 -153 175 -1 4 75 81 167 170 l168 162 -70
1 -70 0 -137 -137 -138 -138 0 138 0 137 -50 0 -50 0 0 -355z"/>
<path d="M3720 595 l0 -355 50 0 50 0 0 45 0 45 48 -30 c50 -30 145 -60 194
-60 26 0 28 3 28 44 l0 44 -46 7 c-65 9 -124 37 -161 76 -58 62 -63 86 -63
324 l0 215 -50 0 -50 0 0 -355z"/>
<path d="M581 938 c-1 -4 -21 -103 -46 -220 -50 -236 -59 -256 -141 -314 -46
-33 -155 -74 -195 -74 -16 0 -19 -8 -19 -46 l0 -46 48 7 c63 9 128 32 180 62
l43 25 -6 -46 -7 -46 50 0 49 0 39 195 c21 107 41 195 44 195 3 0 51 -89 107
-197 l101 -196 103 204 c57 112 104 197 106 189 3 -8 21 -98 42 -200 l37 -185
52 -3 c29 -2 52 -1 52 2 0 5 -140 677 -144 691 -2 6 -58 -100 -126 -235 l-122
-245 -124 245 c-67 135 -123 242 -123 238z"/>
</g>
</svg>
